<svg width="30" height="30" viewBox="0 0 30 30" fill="none" xmlns="http://www.w3.org/2000/svg">
<path fill-rule="evenodd" clip-rule="evenodd" d="M14.6163 2.00665C14.842 1.83112 15.158 1.83112 15.3837 2.00665L26.6337 10.7567C26.786 10.8751 26.875 11.0571 26.875 11.25V25C26.875 26.7259 25.4759 28.125 23.75 28.125H6.25C4.52411 28.125 3.125 26.7259 3.125 25V11.25C3.125 11.0571 3.21405 10.8751 3.36629 10.7567L14.6163 2.00665ZM4.375 11.5557V25C4.375 26.0355 5.21447 26.875 6.25 26.875H23.75C24.7855 26.875 25.625 26.0355 25.625 25V11.5557L15 3.29179L4.375 11.5557Z" fill="#414141"/>
<path fill-rule="evenodd" clip-rule="evenodd" d="M10.625 15C10.625 14.6548 10.9048 14.375 11.25 14.375H18.75C19.0952 14.375 19.375 14.6548 19.375 15V27.5C19.375 27.8452 19.0952 28.125 18.75 28.125C18.4048 28.125 18.125 27.8452 18.125 27.5V15.625H11.875V27.5C11.875 27.8452 11.5952 28.125 11.25 28.125C10.9048 28.125 10.625 27.8452 10.625 27.5V15Z" fill="#414141"/>
</svg>
