<svg width="30" height="30" viewBox="0 0 30 30" fill="none" xmlns="http://www.w3.org/2000/svg">
<path fill-rule="evenodd" clip-rule="evenodd" d="M24.1919 5.80806C24.436 6.05214 24.436 6.44786 24.1919 6.69194L6.69194 24.1919C6.44786 24.436 6.05214 24.436 5.80806 24.1919C5.56398 23.9479 5.56398 23.5521 5.80806 23.3081L23.3081 5.80806C23.5521 5.56398 23.9479 5.56398 24.1919 5.80806Z" fill="#414141"/>
<path fill-rule="evenodd" clip-rule="evenodd" d="M4.375 8.125C4.375 6.05393 6.05393 4.375 8.125 4.375C10.1961 4.375 11.875 6.05393 11.875 8.125C11.875 10.1961 10.1961 11.875 8.125 11.875C6.05393 11.875 4.375 10.1961 4.375 8.125ZM8.125 5.625C6.74429 5.625 5.625 6.74429 5.625 8.125C5.625 9.50571 6.74429 10.625 8.125 10.625C9.50571 10.625 10.625 9.50571 10.625 8.125C10.625 6.74429 9.50571 5.625 8.125 5.625Z" fill="#414141"/>
<path fill-rule="evenodd" clip-rule="evenodd" d="M18.125 21.875C18.125 19.8039 19.8039 18.125 21.875 18.125C23.9461 18.125 25.625 19.8039 25.625 21.875C25.625 23.9461 23.9461 25.625 21.875 25.625C19.8039 25.625 18.125 23.9461 18.125 21.875ZM21.875 19.375C20.4943 19.375 19.375 20.4943 19.375 21.875C19.375 23.2557 20.4943 24.375 21.875 24.375C23.2557 24.375 24.375 23.2557 24.375 21.875C24.375 20.4943 23.2557 19.375 21.875 19.375Z" fill="#414141"/>
</svg>
