<svg width="14" height="13" viewBox="0 0 14 13" fill="none" xmlns="http://www.w3.org/2000/svg">
<path d="M6.35326 0.816985C6.72008 0.0737389 7.77992 0.0737404 8.14674 0.816986L9.36847 3.29249C9.51413 3.58763 9.7957 3.7922 10.1214 3.83953L12.8533 4.2365C13.6735 4.35568 14.001 5.36365 13.4075 5.94219L11.4307 7.8691C11.195 8.09884 11.0875 8.42984 11.1431 8.75423L11.6098 11.4751C11.7499 12.292 10.8924 12.9149 10.1588 12.5293L7.71534 11.2446C7.42402 11.0915 7.07598 11.0915 6.78466 11.2446L4.34119 12.5293C3.60756 12.9149 2.75013 12.292 2.89024 11.4751L3.3569 8.75423C3.41254 8.42984 3.30499 8.09884 3.06931 7.8691L1.0925 5.94219C0.498979 5.36365 0.826491 4.35568 1.64671 4.2365L4.37859 3.83953C4.7043 3.7922 4.98587 3.58763 5.13153 3.29249L6.35326 0.816985Z" fill="#BFBFBF"/>
</svg>
