<svg width="25" height="24" viewBox="0 0 25 24" fill="none" xmlns="http://www.w3.org/2000/svg">
<path fill-rule="evenodd" clip-rule="evenodd" d="M5.75 21C5.75 19.6193 6.86929 18.5 8.25 18.5C9.63071 18.5 10.75 19.6193 10.75 21C10.75 22.3807 9.63071 23.5 8.25 23.5C6.86929 23.5 5.75 22.3807 5.75 21ZM8.25 19.5C7.42157 19.5 6.75 20.1716 6.75 21C6.75 21.8284 7.42157 22.5 8.25 22.5C9.07843 22.5 9.75 21.8284 9.75 21C9.75 20.1716 9.07843 19.5 8.25 19.5Z" fill="#414141"/>
<path fill-rule="evenodd" clip-rule="evenodd" d="M17.75 21C17.75 19.6193 18.8693 18.5 20.25 18.5C21.6307 18.5 22.75 19.6193 22.75 21C22.75 22.3807 21.6307 23.5 20.25 23.5C18.8693 23.5 17.75 22.3807 17.75 21ZM20.25 19.5C19.4216 19.5 18.75 20.1716 18.75 21C18.75 21.8284 19.4216 22.5 20.25 22.5C21.0784 22.5 21.75 21.8284 21.75 21C21.75 20.1716 21.0784 19.5 20.25 19.5Z" fill="#414141"/>
<path fill-rule="evenodd" clip-rule="evenodd" d="M1.25 0.5C0.973858 0.5 0.75 0.723858 0.75 1C0.75 1.27614 0.973858 1.5 1.25 1.5H4.83051C5.58783 5.79147 6.35333 10.0643 6.99931 14.3709C7.18288 15.5947 8.23416 16.5 9.47165 16.5H19.6097C20.8014 16.5 21.8274 15.6588 22.0611 14.4903L23.5003 7.29417C23.686 6.36599 22.976 5.5 22.0295 5.5H7.41046C7.1075 5.5 6.82797 5.58901 6.59436 5.74093L5.74239 0.913107C5.70023 0.674179 5.49262 0.5 5.25 0.5H1.25ZM6.916 7.07417C6.87065 6.77187 7.10478 6.5 7.41046 6.5H22.0295C22.345 6.5 22.5816 6.78866 22.5198 7.09806L21.0805 14.2942C20.9403 14.9953 20.3247 15.5 19.6097 15.5H9.47165C8.72916 15.5 8.09839 14.9568 7.98825 14.2225L6.916 7.07417Z" fill="#414141"/>
</svg>
