<svg width="25" height="24" viewBox="0 0 25 24" fill="none" xmlns="http://www.w3.org/2000/svg">
<path fill-rule="evenodd" clip-rule="evenodd" d="M5 2H20C21.3787 2 22.5 3.12125 22.5 4.5V19.5C22.5 20.8787 21.3787 22 20 22H16.25V15.125H18.125L19.375 12H16.25V9.5C16.25 8.86577 16.7231 8.86942 17.3355 8.87416C17.3893 8.87458 17.4442 8.875 17.5 8.875H18.75V5.75H16.25C14.1788 5.75 12.5 7.42875 12.5 9.5V12H10V15.125H12.5V22H5C3.62125 22 2.5 20.8787 2.5 19.5V4.5C2.5 3.12125 3.62125 2 5 2Z" fill="#1976D2"/>
</svg>
