<svg width="65" height="44" viewBox="0 0 65 44" fill="none" xmlns="http://www.w3.org/2000/svg">
<path d="M45.492 14.2617H17.9751C17.3981 14.2617 16.929 14.7325 16.9793 15.2855C17.5824 21.8704 23.9576 27.052 31.7326 27.052C39.5076 27.052 45.8829 21.8704 46.486 15.2855C46.5381 14.7325 46.069 14.2617 45.492 14.2617Z" fill="#FF6633"/>
<path d="M26.7653 4.40841C26.4581 4.40841 26.1529 4.27596 25.9537 4.0218C24.9486 2.75101 23.0388 1.95989 20.9708 1.95989C18.9028 1.95989 16.993 2.74922 15.9879 4.0218C15.6472 4.45316 15.0069 4.53549 14.5602 4.20795C14.1116 3.88041 14.026 3.2647 14.3666 2.83513C15.7701 1.05959 18.2383 0 20.9708 0C23.7033 0 26.1715 1.05959 27.5768 2.83513C27.9175 3.26648 27.83 3.88041 27.3832 4.20795C27.1971 4.34398 26.9812 4.40841 26.7653 4.40841Z" fill="#414141"/>
<path d="M48.2877 4.40841C47.9806 4.40841 47.6753 4.27596 47.4762 4.0218C46.471 2.75101 44.5612 1.95989 42.4932 1.95989C40.4252 1.95989 38.5155 2.74922 37.5103 4.0218C37.1697 4.45316 36.5294 4.53549 36.0826 4.20795C35.634 3.88041 35.5484 3.2647 35.889 2.83513C37.2925 1.05959 39.7607 0 42.4932 0C45.2258 0 47.6939 1.05959 49.0993 2.83513C49.4399 3.26648 49.3524 3.88041 48.9057 4.20795C48.7196 4.34398 48.5037 4.40841 48.2877 4.40841Z" fill="#414141"/>
<path d="M3.35197 30.0031L2.95178 31.0216C2.91641 31.1057 2.78797 31.1397 2.66885 31.0985C2.39708 31.0198 2.11601 30.8784 1.82192 30.6707C1.52968 30.4667 1.29887 30.2501 1.12762 30.0228C0.868886 29.6774 0.688332 29.3015 0.587817 28.9006C0.491025 28.4961 0.476134 28.1059 0.533837 27.7229C0.595263 27.3434 0.736728 26.9765 0.956371 26.6257C1.17788 26.2749 1.46267 25.976 1.82005 25.729C2.17558 25.482 2.56089 25.3137 2.97597 25.2224C3.39106 25.1311 3.79871 25.1168 4.19332 25.1813C4.59352 25.2457 4.97324 25.3835 5.33807 25.6001C5.70663 25.8149 6.0212 26.0977 6.27993 26.4431C6.4456 26.6651 6.5852 26.9461 6.69316 27.2808C6.80484 27.6155 6.86068 27.9287 6.85882 28.2222C6.86068 28.3404 6.7732 28.4298 6.67641 28.4334L5.54841 28.4639C5.44045 28.4639 5.3511 28.3672 5.3511 28.2294C5.35482 28.0629 5.33249 27.8947 5.27851 27.7193C5.22453 27.5439 5.15566 27.3989 5.07003 27.2843C4.79269 26.9156 4.42413 26.6919 3.96251 26.6203C3.50461 26.5469 3.08766 26.6436 2.70421 26.9085C2.32449 27.1716 2.0974 27.5224 2.02667 27.9645C1.95966 28.403 2.0639 28.8111 2.34124 29.1798C2.42687 29.2943 2.54413 29.4017 2.69677 29.502C2.85126 29.604 3.00203 29.681 3.15653 29.7293C3.3073 29.7758 3.39106 29.8957 3.35197 30.0031Z" fill="#414141"/>
<path d="M7.85455 28.8361C7.94761 28.7377 8.06674 28.7341 8.16726 28.8236L11.0636 31.3831C11.166 31.4726 11.1697 31.5872 11.0766 31.6838L10.4251 32.364C10.3265 32.4678 10.2204 32.4713 10.1124 32.3765L8.15795 30.6493L7.47296 31.3652L8.95649 32.6772C9.06817 32.7756 9.07934 32.8938 8.97882 32.9976L8.44088 33.5596C8.34781 33.658 8.2231 33.6562 8.11328 33.5596L6.62975 32.2476L5.92615 32.985L7.88061 34.7122C8.01835 34.834 8.02952 34.9915 7.91225 35.1114L7.30171 35.7504C7.21051 35.8452 7.08952 35.847 6.989 35.7575L4.03312 33.1479C3.93074 33.0584 3.9233 32.9474 4.01637 32.849L7.85455 28.8361Z" fill="#414141"/>
<path d="M14.1204 37.2574C14.1129 37.542 14.0292 37.8087 13.8672 38.0575C13.5601 38.5318 13.1618 38.8038 12.6722 38.8754C12.1864 38.9488 11.6559 38.8164 11.0845 38.4727L9.07232 37.2664C8.97925 37.2109 8.96249 37.1393 9.01834 37.0534L12.0822 32.3282C12.138 32.2422 12.2125 32.2261 12.3037 32.2816L14.1669 33.3985C14.7123 33.726 15.0529 34.1055 15.1907 34.5386C15.3284 34.9718 15.2503 35.4174 14.9562 35.8721C14.7198 36.2372 14.3065 36.477 13.8914 36.4896C14.0515 36.7187 14.1278 36.9728 14.1204 37.2574ZM11.7862 37.3559C12.1157 37.5545 12.4545 37.4811 12.6555 37.1715C12.8528 36.8672 12.7653 36.554 12.434 36.3571L11.5889 35.8506L10.9411 36.8493L11.7862 37.3559ZM12.7374 34.0822L12.1901 34.9252L12.8882 35.3441C13.1692 35.5123 13.4484 35.4532 13.616 35.1937C13.7835 34.9342 13.7146 34.6693 13.4335 34.501L12.7374 34.0822Z" fill="#414141"/>
<path d="M16.9645 35.1866C17.0166 35.0631 17.1245 35.0184 17.253 35.0685L20.9031 36.4771C21.0316 36.5272 21.0781 36.6311 21.026 36.7546L20.6686 37.6119C20.6146 37.7425 20.516 37.7819 20.3801 37.73L17.9156 36.7796L17.5396 37.6817L19.4103 38.403C19.5499 38.4567 19.6039 38.5641 19.5499 38.6948L19.254 39.4035C19.2018 39.527 19.0864 39.5682 18.9468 39.5145L17.0761 38.7932L16.689 39.7221L19.1534 40.6725C19.3284 40.7406 19.3954 40.882 19.3303 41.0359L18.9934 41.8413C18.9431 41.9612 18.8314 42.0042 18.703 41.9541L14.9784 40.5168C14.8499 40.4667 14.8015 40.3665 14.8536 40.243L16.9645 35.1866Z" fill="#414141"/>
<path d="M24.4776 37.3449C25.1142 37.4792 25.5889 37.7691 25.9016 38.2184C26.2143 38.6641 26.3055 39.1885 26.1659 39.7935C26.03 40.3913 25.7192 40.828 25.2408 41.1054C24.7624 41.3793 24.2077 41.4509 23.5693 41.3166L22.8545 41.1663L22.4971 42.7288C22.4673 42.8577 22.3687 42.9203 22.2253 42.8899L21.1792 42.6698C21.0452 42.6411 20.9857 42.5463 21.0136 42.4174L22.2291 37.0961C22.257 36.9744 22.3631 36.9028 22.4897 36.9297L23.0164 37.0407L23.5469 37.1534L24.4776 37.3449ZM23.8038 40.01C24.0123 40.0548 24.2021 40.0244 24.3678 39.9241C24.5372 39.8239 24.6433 39.6735 24.6898 39.4731C24.7363 39.2726 24.7047 39.0936 24.5949 38.9343C24.4906 38.7715 24.3306 38.6676 24.1221 38.6247L23.4687 38.4869L23.1523 39.874L23.8038 40.01Z" fill="#414141"/>
<path d="M31.7775 38.1312C31.9078 38.1383 31.9897 38.2314 31.9822 38.3549L31.6695 43.7996C31.6621 43.9321 31.5783 44.009 31.4405 44.0001L30.3721 43.9428C30.2251 43.9356 30.1469 43.8497 30.1543 43.7173L30.2474 42.0957L29.6257 42.0635L28.6373 43.6708C28.5498 43.8068 28.494 43.8444 28.373 43.8372L27.124 43.771C26.99 43.7638 26.923 43.6314 26.9956 43.5186L28.1738 41.6679C27.5968 41.2956 27.2841 40.671 27.3269 39.9353C27.3623 39.3214 27.5912 38.8382 28.0175 38.4891C28.4437 38.1365 28.9854 37.9808 29.6369 38.0148L31.5038 38.1133L31.7775 38.1312ZM30.32 40.8392L30.4038 39.3769L29.6238 39.3357C29.4061 39.325 29.2236 39.3823 29.0784 39.5076C28.9333 39.6328 28.8532 39.7975 28.8402 40.0069C28.829 40.2163 28.8886 40.3953 29.0189 40.551C29.1529 40.7032 29.3279 40.7855 29.5401 40.7962L30.32 40.8392Z" fill="#414141"/>
<path d="M38.3859 37.5528C38.4901 37.5402 38.5497 37.5868 38.5627 37.6906L39.2514 43.2177C39.2644 43.3215 39.2161 43.3788 39.1137 43.3913L37.9391 43.5273C37.8349 43.5398 37.7753 43.4933 37.7623 43.3895L37.4887 41.1933L35.2178 41.4547L35.4914 43.6508C35.5044 43.7546 35.4561 43.8119 35.3537 43.8244L34.1829 43.9587C34.0749 43.9712 34.0153 43.9247 34.0023 43.8209L33.3136 38.2938C33.3006 38.19 33.349 38.1327 33.4569 38.1202L34.6277 37.9859C34.732 37.9734 34.7915 38.0199 34.8046 38.1237L35.0559 40.1409L37.3267 39.8796L37.0755 37.8624C37.0624 37.7586 37.1108 37.7013 37.2132 37.6888L38.3859 37.5528Z" fill="#414141"/>
<path d="M40.2982 38.9775C40.3317 38.564 40.4396 38.1864 40.6183 37.8463C40.8008 37.5045 41.052 37.1966 41.3741 36.9281C41.6942 36.6561 42.0609 36.4556 42.4779 36.3232C42.8948 36.1907 43.3136 36.1424 43.7362 36.1782C44.1606 36.2086 44.5533 36.3124 44.907 36.4842C45.2644 36.6543 45.5864 36.8959 45.8656 37.2091C46.1485 37.517 46.357 37.8696 46.4947 38.2705C46.6771 38.8021 46.7106 39.3337 46.5971 39.8599C46.4836 40.3879 46.2434 40.8533 45.8656 41.2578C45.4933 41.6605 45.028 41.9469 44.4714 42.1241C44.0545 42.2565 43.6356 42.3048 43.2112 42.2744C42.785 42.2404 42.3922 42.1366 42.0349 41.9666C41.6812 41.7947 41.361 41.5549 41.08 41.2488C40.8026 40.9392 40.5923 40.5866 40.4564 40.1892C40.3168 39.7883 40.2665 39.3856 40.2982 38.9775ZM42.718 40.66C43.1256 40.8568 43.5519 40.8819 43.9968 40.7405C44.4379 40.6009 44.7599 40.336 44.9665 39.9458C45.1713 39.5538 45.2048 39.1511 45.0577 38.7269C44.9107 38.2991 44.6333 37.9895 44.2257 37.7926C43.8181 37.5957 43.3937 37.5653 42.9544 37.7049C42.5132 37.8445 42.1875 38.113 41.9827 38.505C41.778 38.897 41.7463 39.305 41.8934 39.731C42.0386 40.157 42.3122 40.4631 42.718 40.66Z" fill="#414141"/>
<path d="M50.4468 32.774C50.5473 32.7185 50.672 32.7561 50.7372 32.8635L53.5665 37.5816C53.6279 37.6818 53.5944 37.8124 53.4883 37.8697L52.5502 38.3888C52.4459 38.4478 52.3175 38.4103 52.2561 38.31L51.3012 36.7188C51.1839 37.1037 50.8973 37.4706 50.4933 37.6961C49.8698 38.0415 49.2481 38.131 48.6301 37.9682C48.0103 37.8017 47.5096 37.4026 47.1298 36.769L46.2717 35.3371C46.2103 35.2368 46.2382 35.1044 46.3369 35.0507L47.2676 34.5352C47.383 34.4708 47.5189 34.503 47.5821 34.6104L48.4384 36.0387C48.766 36.5846 49.2965 36.7224 49.8661 36.4074C50.1527 36.2481 50.3277 36.0441 50.404 35.7935C50.4803 35.5429 50.4412 35.2852 50.2849 35.0238L49.4249 33.5884C49.3635 33.4882 49.3951 33.3539 49.4975 33.2984L50.4468 32.774Z" fill="#414141"/>
<path d="M59.7314 32.6002C59.8747 32.6342 59.9436 32.7631 59.8356 32.8562L58.8007 33.7457C58.7356 33.8012 58.6574 33.8263 58.5736 33.8155L55.8876 33.1461L55.2455 33.6974L56.7309 35.2957C56.8035 35.3745 56.7997 35.4479 56.7216 35.5141L55.8337 36.2784C55.7518 36.3482 55.6755 36.3446 55.6029 36.2658L51.7498 32.1187C51.6809 32.0436 51.6846 31.9702 51.7647 31.9004L52.6526 31.1361C52.7307 31.0699 52.8071 31.0735 52.8778 31.1486L54.2924 32.6718L54.795 32.2404L54.5586 29.6989C54.5437 29.5449 54.5921 29.4823 54.7019 29.3874L55.7276 28.5068C55.843 28.4084 55.9696 28.4835 55.9826 28.6428L56.2599 31.7482L59.7314 32.6002Z" fill="#414141"/>
<path d="M64.3453 26.6721C64.4886 26.7062 64.5463 26.8082 64.4533 26.937L63.7701 27.8713C63.7031 27.9626 63.5747 28.0002 63.4518 27.9716L62.6366 27.7443L61.4173 29.4106L61.9143 30.0657C61.9907 30.157 61.9962 30.2894 61.9218 30.3897L61.2405 31.3204C61.1512 31.4421 61.0339 31.4367 60.9446 31.3114L57.5959 26.4216C57.5215 26.307 57.5252 26.1764 57.5922 26.0851L58.1004 25.3906C58.1674 25.2993 58.3014 25.2564 58.4261 25.2868L64.3453 26.6721ZM60.63 28.3761L61.3559 27.3827L59.4778 26.8547L60.63 28.3761Z" fill="#414141"/>
</svg>
