<svg width="25" height="24" viewBox="0 0 25 24" fill="none" xmlns="http://www.w3.org/2000/svg">
<path d="M12.292 5.0251C13.4705 5.0251 14.4291 5.98373 14.4291 7.16224C14.4291 8.33977 13.4702 9.29839 12.292 9.29839C11.1142 9.29839 10.1553 8.33977 10.1553 7.16224C10.1551 5.98348 11.1144 5.0251 12.292 5.0251ZM12.292 12.322C15.1387 12.322 17.4537 10.0077 17.4537 7.16224C17.4537 4.31528 15.1389 2 12.292 2C9.44549 2 7.13021 4.31552 7.13021 7.16224C7.13021 10.0077 9.44549 12.322 12.292 12.322ZM14.3802 16.5323C15.442 16.2905 16.4554 15.8709 17.3774 15.2913C17.7168 15.0777 17.9575 14.7381 18.0465 14.3471C18.1355 13.9561 18.0655 13.5457 17.852 13.2063C17.7464 13.038 17.6086 12.8923 17.4466 12.7773C17.2846 12.6624 17.1016 12.5805 16.9079 12.5363C16.7142 12.4922 16.5138 12.4866 16.3179 12.52C16.1221 12.5534 15.9348 12.6251 15.7667 12.7309C13.6521 14.0604 10.9304 14.0594 8.81744 12.7309C8.64938 12.625 8.46209 12.5534 8.26629 12.52C8.07049 12.4865 7.87002 12.4921 7.67636 12.5362C7.48271 12.5804 7.29965 12.6623 7.13768 12.7773C6.97571 12.8922 6.838 13.038 6.73243 13.2063C6.51882 13.5456 6.44874 13.9559 6.53761 14.3469C6.62647 14.7379 6.86701 15.0776 7.20631 15.2913C8.12823 15.8707 9.14137 16.2902 10.203 16.5323L7.31749 19.4183C7.03392 19.702 6.87466 20.0867 6.87473 20.4878C6.8748 20.8888 7.0342 21.2735 7.31786 21.5571C7.60153 21.8406 7.98622 21.9999 8.38731 21.9998C8.7884 21.9997 9.17304 21.8403 9.45661 21.5567L12.2915 18.7213L15.1281 21.5569C15.2683 21.6974 15.4349 21.8088 15.6182 21.8848C15.8016 21.9609 15.9981 22 16.1966 22C16.3951 22 16.5917 21.9609 16.775 21.8848C16.9584 21.8088 17.1249 21.6974 17.2652 21.5569C17.4059 21.4167 17.5175 21.2501 17.5936 21.0666C17.6698 20.8832 17.709 20.6865 17.709 20.4879C17.709 20.2892 17.6698 20.0926 17.5936 19.9091C17.5175 19.7257 17.4059 19.559 17.2652 19.4188L14.3802 16.5323Z" fill="#EE8208"/>
</svg>
