<svg width="25" height="24" viewBox="0 0 25 24" fill="none" xmlns="http://www.w3.org/2000/svg">
<path fill-rule="evenodd" clip-rule="evenodd" d="M1.03055 5.62795C0.79859 3.78205 2.37862 2.5 4.07554 2.5H7.6672C8.39213 2.5 9.01333 3.01844 9.14301 3.73167L9.74935 7.06653C9.93046 8.06268 9.67133 9.08845 9.03884 9.87906L8.31545 10.7833C8.18654 10.9444 8.17475 11.1581 8.27434 11.3205C8.7439 12.0862 9.58857 13.3797 10.3553 14.1464C11.1221 14.9132 12.4156 15.7579 13.1813 16.2274C13.3437 16.327 13.5573 16.3152 13.7185 16.1863L14.6227 15.4629C15.4133 14.8304 16.4391 14.5713 17.4352 14.7524L20.7701 15.3588C21.4833 15.4885 22.0018 16.1096 22.0018 16.8346V20.1816C22.0018 22.0032 20.5508 23.624 18.6171 23.313C15.3045 22.7803 10.5694 21.0768 6.63538 16.8402C2.81033 12.7209 1.39331 8.51475 1.03055 5.62795ZM4.07554 3.5C2.81103 3.5 1.88547 4.41084 2.02275 5.50326C2.36104 8.19537 3.69444 12.2034 7.36818 16.1598C11.1177 20.1977 15.6307 21.8199 18.7758 22.3257C19.9703 22.5178 21.0018 21.5285 21.0018 20.1816V16.8346C21.0018 16.5929 20.829 16.3859 20.5912 16.3426L17.2564 15.7363C16.5448 15.6069 15.8121 15.792 15.2474 16.2438L14.3432 16.9672C13.8653 17.3495 13.1937 17.4081 12.6585 17.0799C11.8953 16.6119 10.508 15.7133 9.64823 14.8536C8.78849 13.9938 7.8899 12.6064 7.42187 11.8433C7.09367 11.3081 7.15231 10.6364 7.53458 10.1586L8.25797 9.25437C8.70975 8.68964 8.89485 7.95695 8.76548 7.24541L8.15914 3.91056C8.11591 3.67281 7.90885 3.5 7.6672 3.5H4.07554Z" fill="#414141"/>
</svg>
