<svg width="21" height="20" viewBox="0 0 21 20" fill="none" xmlns="http://www.w3.org/2000/svg">
<path fill-rule="evenodd" clip-rule="evenodd" d="M14.25 0H6.75C3.29875 0 0.5 2.79875 0.5 6.25V13.75C0.5 17.2013 3.29875 20 6.75 20H14.25C17.7013 20 20.5 17.2013 20.5 13.75V6.25C20.5 2.79875 17.7013 0 14.25 0ZM18.625 13.75C18.625 16.1625 16.6625 18.125 14.25 18.125H6.75C4.3375 18.125 2.375 16.1625 2.375 13.75V6.25C2.375 3.8375 4.3375 1.875 6.75 1.875H14.25C16.6625 1.875 18.625 3.8375 18.625 6.25V13.75ZM10.5002 5.2002C7.84939 5.2002 5.7002 7.34939 5.7002 10.0002C5.7002 12.651 7.84939 14.8002 10.5002 14.8002C13.151 14.8002 15.3002 12.651 15.3002 10.0002C15.3002 7.34939 13.151 5.2002 10.5002 5.2002ZM10.5002 13.0002C8.84659 13.0002 7.5002 11.6538 7.5002 10.0002C7.5002 8.3454 8.84659 7.0002 10.5002 7.0002C12.1538 7.0002 13.5002 8.3454 13.5002 10.0002C13.5002 11.6538 12.1538 13.0002 10.5002 13.0002ZM16.4998 4.6C16.4998 4.93137 16.2312 5.2 15.8998 5.2C15.5684 5.2 15.2998 4.93137 15.2998 4.6C15.2998 4.26863 15.5684 4 15.8998 4C16.2312 4 16.4998 4.26863 16.4998 4.6Z" fill="url(#paint0_linear_9080_14402)"/>
<defs>
<linearGradient id="paint0_linear_9080_14402" x1="3.42912" y1="17.0709" x2="17.5709" y2="2.92912" gradientUnits="userSpaceOnUse">
<stop stop-color="#FFC107"/>
<stop offset="0.507" stop-color="#F44336"/>
<stop offset="0.99" stop-color="#9C27B0"/>
</linearGradient>
</defs>
</svg>
