<svg width="25" height="24" viewBox="0 0 25 24" fill="none" xmlns="http://www.w3.org/2000/svg">
<path d="M12.286 17.3635H13.4811C13.4811 17.3635 13.8424 17.3234 14.0261 17.1247C14.1961 16.9422 14.1899 16.5996 14.1899 16.5996C14.1899 16.5996 14.1661 14.9958 14.9112 14.7595C15.645 14.527 16.5876 16.3096 17.5864 16.9959C18.3414 17.5147 18.9152 17.401 18.9152 17.401L21.5867 17.3635C21.5867 17.3635 22.9843 17.2772 22.3217 16.1784C22.268 16.0884 21.9355 15.3658 20.3353 13.8807C18.6602 12.3256 18.8852 12.5781 20.9029 9.88915C22.1317 8.25152 22.623 7.25145 22.4692 6.82392C22.323 6.41639 21.4192 6.52389 21.4192 6.52389L18.4139 6.5414C18.4139 6.5414 18.1914 6.51139 18.0252 6.61015C17.8639 6.70766 17.7602 6.93268 17.7602 6.93268C17.7602 6.93268 17.2839 8.20027 16.6488 9.27785C15.31 11.5518 14.7737 11.6718 14.5549 11.5305C14.0461 11.2017 14.1736 10.2079 14.1736 9.50287C14.1736 7.29895 14.5074 6.38013 13.5223 6.14262C13.1948 6.06386 12.9548 6.01136 12.1185 6.00261C11.0459 5.99136 10.1371 6.00636 9.6233 6.25763C9.28078 6.42514 9.01701 6.79892 9.17827 6.82017C9.37703 6.84642 9.82707 6.94143 10.0658 7.26645C10.3746 7.68523 10.3634 8.6278 10.3634 8.6278C10.3634 8.6278 10.5409 11.2217 9.94958 11.5443C9.5433 11.7655 8.987 11.3143 7.79317 9.25035C7.18187 8.19402 6.71934 7.02518 6.71934 7.02518C6.71934 7.02518 6.63058 6.80767 6.47182 6.69141C6.27931 6.55015 6.00929 6.50514 6.00929 6.50514L3.15158 6.52264C3.15158 6.52264 2.7228 6.53515 2.56528 6.72141C2.42527 6.88767 2.55403 7.2302 2.55403 7.2302C2.55403 7.2302 4.7917 12.4643 7.32438 15.1033C9.6483 17.5222 12.286 17.3635 12.286 17.3635Z" fill="#1E88E5"/>
</svg>
